<svg width="32" height="32" viewBox="0 0 32 32" fill="none" xmlns="http://www.w3.org/2000/svg">
<path d="M9.65054 3.95628H7.78809V0H9.65054V3.95628Z" fill="#838484"/>
<path d="M13.2067 3.95628H11.3442V0H13.2067V3.95628Z" fill="#838484"/>
<path d="M16.7619 3.95628H14.8994V0H16.7619V3.95628Z" fill="#838484"/>
<path d="M20.3173 3.95628H18.4561V0H20.3173V3.95628Z" fill="#838484"/>
<path d="M23.8732 3.95628H22.0107V0H23.8732V3.95628Z" fill="#838484"/>
<path d="M3.89464 20.4724V22.3649H0V20.4724H3.89464Z" fill="#838484"/>
<path d="M3.89464 16.7456V18.6381H0V16.7456H3.89464Z" fill="#838484"/>
<path d="M3.89464 13.0178V14.9103H0V13.0178H3.89464Z" fill="#838484"/>
<path d="M3.89464 9.29004V11.1825H0V9.29004H3.89464Z" fill="#838484"/>
<path d="M31.9999 20.4724V22.3649H28.1064V20.4724H31.9999Z" fill="#838484"/>
<path d="M24.6173 26.8387H7.30037C5.93309 26.8387 4.82568 25.7134 4.82568 24.3252V7.41649C4.82568 6.02834 5.93309 4.90308 7.30037 4.90308H24.6173C25.9834 4.90308 27.0908 6.02834 27.0908 7.41649V24.3252C27.0908 25.7134 25.9834 26.8387 24.6173 26.8387Z" fill="url(#paint0_linear_3245_3054)"/>
<path d="M31.9999 16.7456V18.6381H28.1064V16.7456H31.9999Z" fill="#838484"/>
<path d="M31.9999 13.0178V14.9103H28.1064V13.0178H31.9999Z" fill="#838484"/>
<path d="M31.9999 9.29004V11.1825H28.1064V9.29004H31.9999Z" fill="#838484"/>
<path d="M9.65054 31.9999H7.78809V28.0425H9.65054V31.9999Z" fill="#838484"/>
<path d="M13.2067 31.9999H11.3442V28.0425H13.2067V31.9999Z" fill="#838484"/>
<path d="M16.7619 31.9999H14.8994V28.0425H16.7619V31.9999Z" fill="#838484"/>
<path d="M20.3173 31.9999H18.4561V28.0425H20.3173V31.9999Z" fill="#838484"/>
<path d="M23.8732 31.9999H22.0107V28.0425H23.8732V31.9999Z" fill="#838484"/>
<path fill-rule="evenodd" clip-rule="evenodd" d="M23.1407 24.2301H8.77484C8.04438 24.2301 7.44971 23.6259 7.44971 22.8836V8.85701C7.44971 8.11477 8.04438 7.5105 8.77484 7.5105H23.1407C23.8711 7.5105 24.4658 8.11477 24.4658 8.85701V22.8836C24.4658 23.6259 23.8711 24.2301 23.1407 24.2301ZM8.80411 22.8539H23.1114V8.88675H8.80411V22.8539Z" fill="#FEFEFE"/>
<defs>
<linearGradient id="paint0_linear_3245_3054" x1="32.8664" y1="11.3646" x2="24.7588" y2="30.224" gradientUnits="userSpaceOnUse">
<stop stop-color="#26A6DE"/>
<stop offset="1" stop-color="#2E2D7E"/>
</linearGradient>
</defs>
</svg>
