<svg width="126" height="48" viewBox="0 0 126 48" fill="none" xmlns="http://www.w3.org/2000/svg">
<path d="M10.8491 6.09042H8.75537V1.71338H10.8491V6.09042Z" fill="#838484"/>
<path d="M14.8472 6.09042H12.7534V1.71338H14.8472V6.09042Z" fill="#838484"/>
<path d="M18.8438 6.09042H16.75V1.71338H18.8438V6.09042Z" fill="#838484"/>
<path d="M22.8405 6.09042H20.748V1.71338H22.8405V6.09042Z" fill="#838484"/>
<path d="M26.8384 6.09042H24.7446V1.71338H26.8384V6.09042Z" fill="#838484"/>
<path d="M4.37835 24.363V26.4568H0V24.363H4.37835Z" fill="#838484"/>
<path d="M4.37835 20.24V22.3338H0V20.24H4.37835Z" fill="#838484"/>
<path d="M4.37835 16.1157V18.2095H0V16.1157H4.37835Z" fill="#838484"/>
<path d="M4.37835 11.9915V14.0852H0V11.9915H4.37835Z" fill="#838484"/>
<path d="M35.9742 24.363V26.4568H31.5972V24.363H35.9742Z" fill="#838484"/>
<path d="M27.6745 31.4064H8.20684C6.66975 31.4064 5.4248 30.1615 5.4248 28.6257V9.91866C5.4248 8.38288 6.66975 7.13794 8.20684 7.13794H27.6745C29.2103 7.13794 30.4552 8.38288 30.4552 9.91866V28.6257C30.4552 30.1615 29.2103 31.4064 27.6745 31.4064Z" fill="url(#paint0_linear_5144_1245)"/>
<path d="M35.9742 20.24V22.3338H31.5972V20.24H35.9742Z" fill="#838484"/>
<path d="M35.9742 16.1157V18.2095H31.5972V16.1157H35.9742Z" fill="#838484"/>
<path d="M35.9742 11.9915V14.0852H31.5972V11.9915H35.9742Z" fill="#838484"/>
<path d="M10.8491 37.1166H8.75537V32.7383H10.8491V37.1166Z" fill="#838484"/>
<path d="M14.8472 37.1166H12.7534V32.7383H14.8472V37.1166Z" fill="#838484"/>
<path d="M18.8438 37.1166H16.75V32.7383H18.8438V37.1166Z" fill="#838484"/>
<path d="M22.8405 37.1166H20.748V32.7383H22.8405V37.1166Z" fill="#838484"/>
<path d="M26.8384 37.1166H24.7446V32.7383H26.8384V37.1166Z" fill="#838484"/>
<path fill-rule="evenodd" clip-rule="evenodd" d="M26.0147 28.5205H9.86472C9.04353 28.5205 8.375 27.852 8.375 27.0308V11.5124C8.375 10.6912 9.04353 10.0227 9.86472 10.0227H26.0147C26.8359 10.0227 27.5045 10.6912 27.5045 11.5124V27.0308C27.5045 27.852 26.8359 28.5205 26.0147 28.5205ZM9.89762 26.9979H25.9818V11.5453H9.89762V26.9979Z" fill="#FEFEFE"/>
<path fill-rule="evenodd" clip-rule="evenodd" d="M41.5106 45.564C41.4465 45.6798 41.3434 45.7741 41.2013 45.8469C41.0592 45.9189 40.8771 45.9553 40.6552 45.9562H40.1669V46.9971H39.7261V44.4309H40.6552C40.8622 44.4309 41.0373 44.4647 41.1803 44.5322C41.3233 44.6007 41.4303 44.6924 41.5014 44.8073C41.5724 44.9231 41.608 45.0525 41.608 45.1955C41.608 45.3262 41.5755 45.4491 41.5106 45.564ZM41.0315 45.5035C41.114 45.4306 41.1553 45.328 41.1553 45.1955C41.1553 44.9148 40.9886 44.7744 40.6552 44.7744H40.1669V45.6127H40.6552C40.8227 45.6127 40.9482 45.5763 41.0315 45.5035Z" fill="#231F20"/>
<path fill-rule="evenodd" clip-rule="evenodd" d="M42.4092 46.8984C42.2469 46.8116 42.1192 46.6888 42.0262 46.53C41.9332 46.3712 41.8867 46.1869 41.8867 45.9772C41.8867 45.7711 41.9345 45.5881 42.0302 45.4285C42.1258 45.2679 42.2561 45.1446 42.421 45.0587C42.586 44.9727 42.7706 44.9297 42.9751 44.9297C43.1795 44.9297 43.3642 44.9727 43.5291 45.0587C43.694 45.1446 43.8243 45.2679 43.9199 45.4285C44.0156 45.5881 44.0634 45.7711 44.0634 45.9772C44.0634 46.1843 44.0143 46.3676 43.916 46.5273C43.8177 46.6879 43.6844 46.8116 43.5159 46.8984C43.3466 46.9862 43.1597 47.03 42.9553 47.03C42.7544 47.03 42.5724 46.9862 42.4092 46.8984ZM43.2751 46.5865C43.3742 46.5348 43.455 46.4571 43.5173 46.3536C43.5795 46.251 43.6107 46.1255 43.6107 45.9772C43.6107 45.8298 43.5809 45.7053 43.5212 45.6035C43.4615 45.5008 43.383 45.4241 43.2856 45.3732C43.1874 45.3214 43.0812 45.2955 42.9672 45.2955C42.854 45.2955 42.7487 45.3214 42.6513 45.3732C42.5548 45.4241 42.478 45.5008 42.421 45.6035C42.364 45.7053 42.3355 45.8298 42.3355 45.9772C42.3355 46.1966 42.3943 46.3659 42.5118 46.4852C42.6294 46.6045 42.7772 46.6642 42.9553 46.6642C43.0694 46.6642 43.176 46.6383 43.2751 46.5865Z" fill="#231F20"/>
<path d="M47.368 44.9626L46.7047 46.9972H46.2401L45.8111 45.4943L45.3808 46.9972H44.9162L44.249 44.9626H44.6991L45.1439 46.5984L45.5979 44.9626H46.0585L46.4928 46.5906L46.9337 44.9626H47.368Z" fill="#231F20"/>
<path fill-rule="evenodd" clip-rule="evenodd" d="M49.6383 46.1365H48.0078C48.0201 46.2988 48.0832 46.4291 48.1973 46.5273C48.3105 46.6265 48.4499 46.676 48.6158 46.676C48.8526 46.676 49.0202 46.5813 49.1185 46.3918H49.5949C49.5308 46.5786 49.4141 46.7317 49.2448 46.8511C49.0755 46.9704 48.8658 47.03 48.6158 47.03C48.4113 47.03 48.2284 46.9862 48.067 46.8984C47.9056 46.8116 47.7792 46.6888 47.688 46.53C47.5959 46.3712 47.5498 46.1869 47.5498 45.9772C47.5498 45.7684 47.5945 45.5846 47.684 45.4258C47.7726 45.267 47.8977 45.1446 48.0591 45.0587C48.2205 44.9727 48.4061 44.9297 48.6158 44.9297C48.8167 44.9297 48.9961 44.9714 49.154 45.0547C49.3111 45.1389 49.4334 45.2565 49.5212 45.4074C49.6089 45.5592 49.6528 45.7333 49.6528 45.9299C49.6528 46.0062 49.648 46.0751 49.6383 46.1365ZM49.1922 45.7969C49.1895 45.6417 49.1316 45.5175 49.0185 45.4245C48.9044 45.3306 48.7636 45.2837 48.596 45.2837C48.4434 45.2837 48.3131 45.3298 48.2052 45.4219C48.0964 45.514 48.0315 45.639 48.0104 45.7969H49.1922Z" fill="#231F20"/>
<path d="M50.7857 45.0165C50.8927 44.9586 51.02 44.9297 51.1674 44.9297V45.3653H51.0555C50.8827 45.3653 50.7515 45.407 50.662 45.4903C50.5734 45.5745 50.5291 45.7197 50.5291 45.9259V46.9971H50.0869V44.9626H50.5291V45.2574C50.5931 45.1547 50.6787 45.0745 50.7857 45.0165Z" fill="#231F20"/>
<path d="M51.5977 44.6165C51.5433 44.5647 51.5161 44.5006 51.5161 44.4243C51.5161 44.348 51.5433 44.2839 51.5977 44.2322C51.6521 44.1804 51.7192 44.1545 51.799 44.1545C51.8763 44.1545 51.9421 44.1804 51.9965 44.2322C52.0508 44.2839 52.078 44.348 52.078 44.4243C52.078 44.5006 52.0508 44.5647 51.9965 44.6165C51.9421 44.6673 51.8763 44.6928 51.799 44.6928C51.7192 44.6928 51.6521 44.6673 51.5977 44.6165ZM52.0162 44.9626V46.9971H51.574V44.9626H52.0162Z" fill="#231F20"/>
<path d="M54.1246 45.0297C54.2579 45.0955 54.3619 45.1938 54.4365 45.3245C54.5119 45.4552 54.5496 45.6127 54.5496 45.7969V46.9971H54.1114V45.8601C54.1114 45.6776 54.0636 45.5377 53.968 45.4403C53.8723 45.3438 53.742 45.2955 53.5771 45.2955C53.4122 45.2955 53.281 45.3438 53.1836 45.4403C53.0871 45.5377 53.0389 45.6776 53.0389 45.8601V46.9971H52.5967V44.9626H53.0389V45.1955C53.1108 45.1122 53.2029 45.0468 53.3152 44.9994C53.4275 44.9529 53.5473 44.9297 53.6745 44.9297C53.8421 44.9297 53.9921 44.963 54.1246 45.0297Z" fill="#231F20"/>
<path fill-rule="evenodd" clip-rule="evenodd" d="M56.4102 45.0244C56.5382 45.0867 56.6383 45.1644 56.7102 45.2574V44.9626H57.1563V47.03C57.1563 47.2169 57.1147 47.3836 57.0313 47.5301C56.9488 47.6766 56.8295 47.7916 56.6734 47.8749C56.5172 47.9583 56.3308 47.9999 56.1141 47.9999C55.8245 47.9999 55.5841 47.9355 55.3929 47.8065C55.2025 47.6775 55.0942 47.5025 55.0678 47.2814H55.5061C55.5394 47.3867 55.6109 47.4718 55.7206 47.5367C55.8302 47.6025 55.9614 47.6354 56.1141 47.6354C56.2922 47.6354 56.436 47.5836 56.5457 47.4801C56.6554 47.3766 56.7102 47.2266 56.7102 47.03V46.6905C56.6356 46.7861 56.5343 46.8669 56.4062 46.9327C56.2781 46.9976 56.1329 47.03 55.9706 47.03C55.7846 47.03 55.6149 46.9849 55.4613 46.8945C55.3078 46.805 55.1863 46.6795 55.0968 46.5181C55.0082 46.3576 54.9639 46.1751 54.9639 45.9707C54.9639 45.7662 55.0082 45.5855 55.0968 45.4285C55.1863 45.2705 55.3078 45.1477 55.4613 45.06C55.6149 44.9731 55.7846 44.9297 55.9706 44.9297C56.1356 44.9297 56.2821 44.9613 56.4102 45.0244ZM56.6194 45.6127C56.5589 45.5092 56.4795 45.4302 56.3812 45.3758C56.2829 45.3223 56.1772 45.2955 56.0641 45.2955C55.95 45.2955 55.8438 45.3219 55.7456 45.3745C55.6473 45.4271 55.5679 45.5043 55.5074 45.6061C55.4468 45.7088 55.4166 45.8303 55.4166 45.9707C55.4166 46.111 55.4468 46.2339 55.5074 46.3391C55.5679 46.4453 55.6482 46.526 55.7482 46.5813C55.8473 46.6366 55.9526 46.6642 56.0641 46.6642C56.1772 46.6642 56.2829 46.637 56.3812 46.5826C56.4795 46.5291 56.5589 46.4497 56.6194 46.3444C56.6799 46.24 56.7102 46.118 56.7102 45.9785C56.7102 45.8382 56.6799 45.7162 56.6194 45.6127Z" fill="#231F20"/>
<path d="M59.2595 45.3061V46.4313C59.2595 46.5076 59.2779 46.5624 59.3148 46.5958C59.3525 46.6291 59.4165 46.6458 59.5069 46.6458H59.778V46.9972H59.4293C59.231 46.9972 59.0788 46.9529 58.9726 46.8642C58.8664 46.7748 58.8134 46.6304 58.8134 46.4313V45.3061H58.562V44.9626H58.8134V44.4573H59.2595V44.9626H59.778V45.3061H59.2595Z" fill="#231F20"/>
<path d="M61.7243 45.0297C61.8524 45.0955 61.9533 45.1938 62.027 45.3245C62.1007 45.4552 62.1375 45.6127 62.1375 45.797V46.9972H61.6993V45.8601C61.6993 45.6776 61.6515 45.5377 61.5558 45.4403C61.4602 45.3438 61.3299 45.2956 61.165 45.2956C61 45.2956 60.8689 45.3438 60.7715 45.4403C60.675 45.5377 60.6267 45.6776 60.6267 45.8601V46.9972H60.1846V44.2651H60.6267V45.1995C60.7013 45.1135 60.7961 45.0468 60.911 44.9995C61.0259 44.953 61.1518 44.9297 61.2887 44.9297C61.4519 44.9297 61.5971 44.9631 61.7243 45.0297Z" fill="#231F20"/>
<path fill-rule="evenodd" clip-rule="evenodd" d="M64.6394 46.1365H63.0089C63.0221 46.2988 63.0852 46.4291 63.1984 46.5273C63.3125 46.6265 63.452 46.676 63.6169 46.676C63.8546 46.676 64.0227 46.5813 64.1209 46.3918H64.5973C64.5324 46.5786 64.4157 46.7317 64.2473 46.8511C64.0779 46.9704 63.8678 47.03 63.6169 47.03C63.4133 47.03 63.2309 46.9862 63.0694 46.8984C62.908 46.8116 62.7812 46.6888 62.6891 46.53C62.5979 46.3712 62.5522 46.1869 62.5522 45.9772C62.5522 45.7684 62.5966 45.5846 62.6852 45.4258C62.7747 45.267 62.9001 45.1446 63.0615 45.0587C63.223 44.9727 63.4081 44.9297 63.6169 44.9297C63.8187 44.9297 63.9981 44.9714 64.1551 45.0547C64.3131 45.1389 64.4359 45.2565 64.5236 45.4074C64.6114 45.5592 64.6552 45.7333 64.6552 45.9299C64.6552 46.0062 64.65 46.0751 64.6394 46.1365ZM64.1946 45.7969C64.192 45.6417 64.1336 45.5175 64.0196 45.4245C63.9064 45.3306 63.766 45.2837 63.5985 45.2837C63.4458 45.2837 63.3151 45.3298 63.2063 45.4219C63.0975 45.514 63.033 45.639 63.0128 45.7969H64.1946Z" fill="#231F20"/>
<path d="M67.6807 44.4309V44.7744H66.5371V45.5311H67.428V45.8746H66.5371V46.9971H66.0962V44.4309H67.6807Z" fill="#231F20"/>
<path d="M70.0229 44.9626V46.9972H69.5821V46.7564C69.5119 46.8406 69.4206 46.9064 69.3083 46.9538C69.196 47.002 69.0767 47.0262 68.9504 47.0262C68.7828 47.0262 68.6323 46.9928 68.499 46.9261C68.3665 46.8603 68.2621 46.7621 68.1858 46.6313C68.1095 46.5006 68.0713 46.3431 68.0713 46.1589V44.9626H68.5095V46.0957C68.5095 46.2782 68.5569 46.4182 68.6516 46.5155C68.7473 46.612 68.878 46.6603 69.0438 46.6603C69.2088 46.6603 69.3399 46.612 69.4373 46.5155C69.5338 46.4182 69.5821 46.2782 69.5821 46.0957V44.9626H70.0229Z" fill="#231F20"/>
<path d="M71.1195 45.3061V46.4313C71.1195 46.5076 71.1384 46.5624 71.1761 46.5958C71.2138 46.6291 71.2779 46.6458 71.3682 46.6458H71.6393V46.9972H71.2906C71.0914 46.9972 70.9388 46.9529 70.8326 46.8642C70.7273 46.7748 70.6747 46.6304 70.6747 46.4313V45.3061H70.4233V44.9626H70.6747V44.4573H71.1195V44.9626H71.6393V45.3061H71.1195Z" fill="#231F20"/>
<path d="M73.978 44.9626V46.9972H73.5371V46.7564C73.4678 46.8406 73.377 46.9064 73.2647 46.9538C73.1515 47.002 73.0318 47.0262 72.9055 47.0262C72.7379 47.0262 72.5874 46.9928 72.4541 46.9261C72.3216 46.8603 72.2172 46.7621 72.1409 46.6313C72.0645 46.5006 72.0264 46.3431 72.0264 46.1589V44.9626H72.4646V46.0957C72.4646 46.2782 72.512 46.4182 72.6067 46.5155C72.7024 46.612 72.8331 46.6603 72.9989 46.6603C73.1638 46.6603 73.295 46.612 73.3924 46.5155C73.4889 46.4182 73.5371 46.2782 73.5371 46.0957V44.9626H73.978Z" fill="#231F20"/>
<path d="M75.2584 45.0165C75.3654 44.9586 75.4926 44.9297 75.64 44.9297V45.3653H75.5281C75.3553 45.3653 75.2242 45.407 75.1347 45.4903C75.0461 45.5745 75.0013 45.7197 75.0004 45.9259V46.9971H74.5596V44.9626H75.0004V45.2574C75.0654 45.1547 75.1513 45.0745 75.2584 45.0165Z" fill="#231F20"/>
<path fill-rule="evenodd" clip-rule="evenodd" d="M77.9874 46.1365H76.3569C76.3692 46.2988 76.4323 46.4291 76.5464 46.5273C76.6596 46.6265 76.7991 46.676 76.9649 46.676C77.2026 46.676 77.3702 46.5813 77.4676 46.3918H77.9453C77.8804 46.5786 77.7633 46.7317 77.5939 46.8511C77.4246 46.9704 77.2149 47.03 76.9649 47.03C76.7605 47.03 76.5775 46.9862 76.4161 46.8984C76.2547 46.8116 76.1283 46.6888 76.0371 46.53C75.945 46.3712 75.8989 46.1869 75.8989 45.9772C75.8989 45.7684 75.9437 45.5846 76.0332 45.4258C76.1218 45.267 76.2468 45.1446 76.4082 45.0587C76.5696 44.9727 76.7552 44.9297 76.9649 44.9297C77.1658 44.9297 77.3452 44.9714 77.5031 45.0547C77.6602 45.1389 77.783 45.2565 77.8716 45.4074C77.9594 45.5592 78.0032 45.7333 78.0032 45.9299C78.0032 46.0062 77.998 46.0751 77.9874 46.1365ZM77.5413 45.7969C77.5387 45.6417 77.4808 45.5175 77.3676 45.4245C77.2535 45.3306 77.1127 45.2837 76.9452 45.2837C76.7925 45.2837 76.6622 45.3298 76.5543 45.4219C76.4455 45.514 76.381 45.639 76.3608 45.7969H77.5413Z" fill="#231F20"/>
<path d="M81.1831 44.4309V44.7744H80.4672V46.9971H80.025V44.7744H79.3052V44.4309H81.1831Z" fill="#231F20"/>
<path d="M83.1686 45.0297C83.2958 45.0955 83.3963 45.1938 83.47 45.3245C83.5437 45.4552 83.5805 45.6127 83.5805 45.797V46.9972H83.1436V45.8601C83.1436 45.6776 83.0958 45.5377 83.0002 45.4403C82.9046 45.3438 82.7738 45.2956 82.608 45.2956C82.4431 45.2956 82.3119 45.3438 82.2145 45.4403C82.118 45.5377 82.0698 45.6776 82.0698 45.8601V46.9972H81.6289V44.2651H82.0698V45.1995C82.1452 45.1135 82.2404 45.0468 82.3553 44.9995C82.4703 44.953 82.5957 44.9297 82.7317 44.9297C82.8949 44.9297 83.0405 44.9631 83.1686 45.0297Z" fill="#231F20"/>
<path d="M84.8414 45.0165C84.9484 44.9586 85.0756 44.9297 85.223 44.9297V45.3653H85.1112C84.9374 45.3653 84.8063 45.407 84.7177 45.4903C84.6282 45.5745 84.5834 45.7197 84.5834 45.9259V46.9971H84.1426V44.9626H84.5834V45.2574C84.6484 45.1547 84.7343 45.0745 84.8414 45.0165Z" fill="#231F20"/>
<path fill-rule="evenodd" clip-rule="evenodd" d="M86.0088 46.8984C85.8465 46.8116 85.7188 46.6888 85.6258 46.53C85.5328 46.3712 85.4863 46.1869 85.4863 45.9772C85.4863 45.7711 85.5341 45.5881 85.6298 45.4285C85.7254 45.2679 85.8557 45.1446 86.0206 45.0587C86.1864 44.9727 86.3711 44.9297 86.5747 44.9297C86.7791 44.9297 86.9638 44.9727 87.1287 45.0587C87.2945 45.1446 87.4248 45.2679 87.5196 45.4285C87.6152 45.5881 87.663 45.7711 87.663 45.9772C87.663 46.1843 87.6139 46.3676 87.5156 46.5273C87.4182 46.6879 87.2849 46.8116 87.1155 46.8984C86.9462 46.9862 86.7598 47.03 86.5562 47.03C86.3545 47.03 86.172 46.9862 86.0088 46.8984ZM86.8747 46.5865C86.9747 46.5348 87.0554 46.4571 87.1169 46.3536C87.1792 46.251 87.2103 46.1255 87.2103 45.9772C87.2103 45.8298 87.1805 45.7053 87.1208 45.6035C87.062 45.5008 86.9835 45.4241 86.8852 45.3732C86.787 45.3214 86.6808 45.2955 86.5668 45.2955C86.4536 45.2955 86.3483 45.3214 86.2509 45.3732C86.1544 45.4241 86.0777 45.5008 86.0206 45.6035C85.9645 45.7053 85.9364 45.8298 85.9364 45.9772C85.9364 46.1966 85.9947 46.3659 86.1114 46.4852C86.2299 46.6045 86.3781 46.6642 86.5562 46.6642C86.6694 46.6642 86.7756 46.6383 86.8747 46.5865Z" fill="#231F20"/>
<path d="M90.0332 44.9626V46.9972H89.5923V46.7564C89.523 46.8406 89.4322 46.9064 89.3199 46.9538C89.2067 47.002 89.087 47.0262 88.9606 47.0262C88.7931 47.0262 88.6426 46.9928 88.5092 46.9261C88.3768 46.8603 88.2724 46.7621 88.196 46.6313C88.1197 46.5006 88.0815 46.3431 88.0815 46.1589V44.9626H88.5198V46.0957C88.5198 46.2782 88.5671 46.4182 88.6619 46.5155C88.7575 46.612 88.8883 46.6603 89.0541 46.6603C89.219 46.6603 89.3502 46.612 89.4476 46.5155C89.5441 46.4182 89.5923 46.2782 89.5923 46.0957V44.9626H90.0332Z" fill="#231F20"/>
<path fill-rule="evenodd" clip-rule="evenodd" d="M91.9149 45.0244C92.0421 45.0867 92.1421 45.1644 92.2149 45.2574V44.9626H92.6597V47.03C92.6597 47.2169 92.6185 47.3836 92.536 47.5301C92.4536 47.6766 92.3343 47.7916 92.1781 47.8749C92.0219 47.9583 91.8351 47.9999 91.6175 47.9999C91.3288 47.9999 91.0889 47.9355 90.8976 47.8065C90.7064 47.6775 90.598 47.5025 90.5726 47.2814H91.0095C91.0437 47.3867 91.1156 47.4718 91.2253 47.5367C91.335 47.6025 91.4657 47.6354 91.6175 47.6354C91.7964 47.6354 91.9408 47.5836 92.0504 47.4801C92.1601 47.3766 92.2149 47.2266 92.2149 47.03V46.6905C92.1404 46.7861 92.039 46.8669 91.9109 46.9327C91.7828 46.9976 91.6376 47.03 91.4753 47.03C91.2893 47.03 91.1191 46.9849 90.9647 46.8945C90.8112 46.805 90.6901 46.6795 90.6015 46.5181C90.512 46.3576 90.4673 46.1751 90.4673 45.9707C90.4673 45.7662 90.512 45.5855 90.6015 45.4285C90.6901 45.2705 90.8112 45.1477 90.9647 45.06C91.1191 44.9731 91.2893 44.9297 91.4753 44.9297C91.6403 44.9297 91.7868 44.9613 91.9149 45.0244ZM92.1241 45.6127C92.0627 45.5092 91.9833 45.4302 91.8859 45.3758C91.7877 45.3223 91.6815 45.2955 91.5675 45.2955C91.4543 45.2955 91.3486 45.3219 91.2503 45.3745C91.152 45.4271 91.0726 45.5043 91.0121 45.6061C90.9516 45.7088 90.9213 45.8303 90.9213 45.9707C90.9213 46.111 90.9516 46.2339 91.0121 46.3391C91.0726 46.4453 91.1525 46.526 91.2516 46.5813C91.3516 46.6366 91.4569 46.6642 91.5675 46.6642C91.6815 46.6642 91.7877 46.637 91.8859 46.5826C91.9833 46.5291 92.0627 46.4497 92.1241 46.3444C92.1847 46.24 92.2149 46.118 92.2149 45.9785C92.2149 45.8382 92.1847 45.7162 92.1241 45.6127Z" fill="#231F20"/>
<path d="M94.7809 45.0297C94.9081 45.0955 95.0086 45.1938 95.0823 45.3245C95.156 45.4552 95.1928 45.6127 95.1928 45.797V46.9972H94.7559V45.8601C94.7559 45.6776 94.7081 45.5377 94.6125 45.4403C94.5169 45.3438 94.3861 45.2956 94.2203 45.2956C94.0554 45.2956 93.9242 45.3438 93.8268 45.4403C93.7303 45.5377 93.6821 45.6776 93.6821 45.8601V46.9972H93.2412V44.2651H93.6821V45.1995C93.7575 45.1135 93.8527 45.0468 93.9676 44.9995C94.0826 44.953 94.208 44.9297 94.344 44.9297C94.5072 44.9297 94.6528 44.9631 94.7809 45.0297Z" fill="#231F20"/>
<path d="M97.2039 44.7705V45.5232H98.133V45.8667H97.2039V46.6537H98.2488V46.9972H96.7617V44.427H98.2488V44.7705H97.2039Z" fill="#231F20"/>
<path d="M99.7055 45.9668L100.395 46.9972H99.895L99.4344 46.3063L99.0002 46.9972H98.5396L99.2291 45.9957L98.5396 44.9626H99.0396L99.5002 45.6535L99.9345 44.9626H100.395L99.7055 45.9668Z" fill="#231F20"/>
<path fill-rule="evenodd" clip-rule="evenodd" d="M101.472 45.0258C101.601 44.9617 101.747 44.9297 101.91 44.9297C102.096 44.9297 102.266 44.9731 102.419 45.06C102.573 45.1477 102.693 45.2705 102.781 45.4285C102.869 45.5855 102.913 45.7662 102.913 45.9707C102.913 46.1751 102.869 46.3576 102.781 46.5181C102.693 46.6795 102.573 46.805 102.419 46.8945C102.266 46.9849 102.096 47.03 101.91 47.03C101.747 47.03 101.602 46.9985 101.476 46.9353C101.349 46.873 101.246 46.7949 101.166 46.701V47.9631H100.724V44.9626H101.166V45.2613C101.241 45.1683 101.343 45.0898 101.472 45.0258ZM102.373 45.6061C102.312 45.5043 102.231 45.4271 102.132 45.3745C102.033 45.3219 101.927 45.2955 101.812 45.2955C101.702 45.2955 101.597 45.3223 101.497 45.3758C101.397 45.4302 101.318 45.5092 101.257 45.6127C101.197 45.7162 101.166 45.8382 101.166 45.9785C101.166 46.118 101.197 46.24 101.257 46.3444C101.318 46.4497 101.397 46.5291 101.497 46.5826C101.597 46.637 101.702 46.6642 101.812 46.6642C101.927 46.6642 102.033 46.6366 102.132 46.5813C102.231 46.526 102.312 46.4453 102.373 46.3391C102.434 46.2339 102.464 46.111 102.464 45.9707C102.464 45.8303 102.434 45.7088 102.373 45.6061Z" fill="#231F20"/>
<path fill-rule="evenodd" clip-rule="evenodd" d="M105.291 46.1365H103.66C103.673 46.2988 103.737 46.4291 103.851 46.5273C103.964 46.6265 104.103 46.676 104.268 46.676C104.506 46.676 104.674 46.5813 104.772 46.3918H105.249C105.184 46.5786 105.067 46.7317 104.899 46.8511C104.729 46.9704 104.519 47.03 104.268 47.03C104.065 47.03 103.882 46.9862 103.721 46.8984C103.559 46.8116 103.433 46.6888 103.342 46.53C103.25 46.3712 103.204 46.1869 103.204 45.9772C103.204 45.7684 103.248 45.5846 103.338 45.4258C103.426 45.267 103.551 45.1446 103.713 45.0587C103.874 44.9727 104.059 44.9297 104.268 44.9297C104.47 44.9297 104.65 44.9714 104.808 45.0547C104.965 45.1389 105.087 45.2565 105.175 45.4074C105.263 45.5592 105.307 45.7333 105.307 45.9299C105.307 46.0062 105.301 46.0751 105.291 46.1365ZM104.846 45.7969C104.843 45.6417 104.785 45.5175 104.672 45.4245C104.558 45.3306 104.417 45.2837 104.25 45.2837C104.097 45.2837 103.966 45.3298 103.858 45.4219C103.75 45.514 103.685 45.639 103.664 45.7969H104.846Z" fill="#231F20"/>
<path d="M106.44 45.0165C106.547 44.9586 106.674 44.9297 106.821 44.9297V45.3653H106.709C106.536 45.3653 106.405 45.407 106.316 45.4903C106.226 45.5745 106.182 45.7197 106.182 45.9259V46.9971H105.741V44.9626H106.182V45.2574C106.247 45.1547 106.332 45.0745 106.44 45.0165Z" fill="#231F20"/>
<path d="M107.744 45.3061V46.4313C107.744 46.5076 107.762 46.5624 107.799 46.5958C107.837 46.6291 107.901 46.6458 107.991 46.6458H108.262V46.9972H107.914C107.714 46.9972 107.562 46.9529 107.457 46.8642C107.351 46.7748 107.298 46.6304 107.298 46.4313V45.3061H107.046V44.9626H107.298V44.4573H107.744V44.9626H108.262V45.3061H107.744Z" fill="#231F20"/>
<path d="M108.693 44.6165C108.639 44.5647 108.611 44.5006 108.611 44.4243C108.611 44.348 108.639 44.2839 108.693 44.2322C108.747 44.1804 108.814 44.1545 108.894 44.1545C108.971 44.1545 109.037 44.1804 109.092 44.2322C109.146 44.2839 109.173 44.348 109.173 44.4243C109.173 44.5006 109.146 44.5647 109.092 44.6165C109.037 44.6673 108.971 44.6928 108.894 44.6928C108.814 44.6928 108.747 44.6673 108.693 44.6165ZM109.111 44.9626V46.9971H108.669V44.9626H109.111Z" fill="#231F20"/>
<path d="M110.015 46.9432C109.882 46.8853 109.777 46.8063 109.699 46.7063C109.622 46.6072 109.581 46.4957 109.576 46.372H110.032C110.04 46.4589 110.084 46.5313 110.163 46.5892C110.241 46.6471 110.339 46.676 110.459 46.676C110.582 46.676 110.678 46.6532 110.747 46.6076C110.815 46.562 110.85 46.5032 110.85 46.4313C110.85 46.3549 110.811 46.2983 110.735 46.2615C110.659 46.2246 110.538 46.1843 110.373 46.1404C110.214 46.0983 110.083 46.0575 109.982 46.018C109.881 45.9785 109.794 45.9184 109.72 45.8377C109.647 45.7561 109.61 45.6491 109.61 45.5166C109.61 45.4078 109.644 45.3087 109.711 45.2192C109.778 45.1297 109.874 45.0591 109.999 45.0073C110.125 44.9556 110.269 44.9297 110.431 44.9297C110.674 44.9297 110.87 44.988 111.018 45.1047C111.166 45.2214 111.246 45.3806 111.256 45.5824H110.815C110.807 45.4921 110.768 45.4197 110.698 45.3653C110.629 45.3109 110.535 45.2837 110.415 45.2837C110.299 45.2837 110.21 45.3048 110.148 45.3469C110.087 45.389 110.056 45.4443 110.056 45.5127C110.056 45.5671 110.077 45.6127 110.118 45.6495C110.159 45.6864 110.21 45.7153 110.269 45.7364C110.328 45.7566 110.416 45.7829 110.532 45.8154C110.687 45.8548 110.814 45.8948 110.914 45.9351C111.013 45.9755 111.099 46.0351 111.171 46.1141C111.244 46.1931 111.281 46.2979 111.284 46.4286C111.284 46.5444 111.25 46.6475 111.183 46.7379C111.116 46.8291 111.021 46.9006 110.898 46.9524C110.775 47.0042 110.632 47.03 110.467 47.03C110.298 47.03 110.148 47.0011 110.015 46.9432Z" fill="#231F20"/>
<path fill-rule="evenodd" clip-rule="evenodd" d="M113.7 46.1365H112.069C112.083 46.2988 112.146 46.4291 112.259 46.5273C112.373 46.6265 112.513 46.676 112.677 46.676C112.915 46.676 113.083 46.5813 113.181 46.3918H113.658C113.593 46.5786 113.476 46.7317 113.308 46.8511C113.138 46.9704 112.928 47.03 112.677 47.03C112.474 47.03 112.291 46.9862 112.13 46.8984C111.969 46.8116 111.842 46.6888 111.75 46.53C111.658 46.3712 111.613 46.1869 111.613 45.9772C111.613 45.7684 111.658 45.5846 111.747 45.4258C111.836 45.267 111.961 45.1446 112.122 45.0587C112.284 44.9727 112.469 44.9297 112.677 44.9297C112.879 44.9297 113.059 44.9714 113.217 45.0547C113.374 45.1389 113.496 45.2565 113.584 45.4074C113.672 45.5592 113.716 45.7333 113.716 45.9299C113.716 46.0062 113.711 46.0751 113.7 46.1365ZM113.255 45.7969C113.253 45.6417 113.194 45.5175 113.08 45.4245C112.967 45.3306 112.827 45.2837 112.659 45.2837C112.506 45.2837 112.376 45.3298 112.267 45.4219C112.159 45.514 112.094 45.639 112.073 45.7969H113.255Z" fill="#231F20"/>
<path d="M90.8965 13.8562V16.7501H83.0136C79.5709 16.7501 77.8496 15.5254 77.8496 13.0758V8.24216C77.8496 5.79263 79.5709 4.56787 83.0136 4.56787H90.8965V7.46308H83.0136C81.9266 7.46308 81.3831 7.84999 81.2752 8.62248V12.6955C81.3831 13.4693 81.9266 13.8562 83.0136 13.8562H90.8965Z" fill="#403F40"/>
<path d="M71.9287 3.32687V0H75.7043V3.32687H71.9287ZM71.9287 17.1304V4.71657H75.703V17.1304H71.9287Z" fill="#403F40"/>
<path d="M57.8438 3.32687V0H61.6194V3.32687H57.8438ZM57.8438 17.1304V4.71657H61.6181V17.1304H57.8438Z" fill="#403F40"/>
<path fill-rule="evenodd" clip-rule="evenodd" d="M108.053 12.5982C108.053 14.0906 107.645 15.1666 106.829 15.8264C106.014 16.4861 104.672 16.816 102.805 16.816H98.6465C96.7787 16.816 95.4368 16.4861 94.6209 15.8264C93.8049 15.1666 93.397 14.0906 93.397 12.5982V8.96999C93.397 7.47764 93.8049 6.40159 94.6209 5.74184C95.4368 5.08208 96.7787 4.7522 98.6465 4.7522H102.805C104.672 4.7522 106.014 5.08208 106.829 5.74184C107.645 6.40159 108.053 7.47764 108.053 8.96999V12.5982ZM104.279 8.96869C104.279 8.40368 104.166 8.03081 103.939 7.85008C103.714 7.66935 103.247 7.57898 102.539 7.57898H98.9124C98.2043 7.57898 97.7372 7.66935 97.5108 7.85008C97.2853 8.03081 97.1726 8.40368 97.1726 8.96869V12.5982C97.1726 13.1632 97.2853 13.5361 97.5108 13.7168C97.7372 13.8976 98.2043 13.9879 98.9124 13.9879H102.539C103.247 13.9879 103.714 13.8976 103.939 13.7168C104.166 13.5361 104.279 13.1632 104.279 12.5982V8.96869Z" fill="#403F40"/>
<path d="M121.59 16.6739V8.47518C121.59 8.11372 121.516 7.8742 121.369 7.75664C121.221 7.6382 120.921 7.57898 120.468 7.57898H116.105C115.927 7.57898 115.736 7.64566 115.529 7.77901C115.323 7.91324 115.023 8.1374 114.629 8.45149V16.6739H110.855V4.89301H114.246V5.88265C114.384 5.78877 114.546 5.67911 114.733 5.55365C114.92 5.42731 115.121 5.30536 115.337 5.18779C115.554 5.07023 115.77 4.96803 115.986 4.88117C116.202 4.79519 116.418 4.7522 116.635 4.7522H120.734C122.327 4.7522 123.497 5.05444 124.244 5.65893C124.991 6.26341 125.364 7.20217 125.364 8.47518V16.6739H121.59Z" fill="#403F40"/>
<path fill-rule="evenodd" clip-rule="evenodd" d="M41.0146 36.6442V20.3862H52.4731C53.9365 20.3862 55.106 20.728 55.9816 21.4114C56.8572 22.0949 57.2954 23.0884 57.2963 24.3922V25.4292C57.2954 25.9319 57.2186 26.3482 57.066 26.6781C56.9116 27.0079 56.6269 27.3141 56.2119 27.5966L55.4802 28.0678L56.6725 28.7981C57.2322 29.1438 57.6025 29.5013 57.7832 29.8707C57.9639 30.2392 58.0543 30.6827 58.0543 31.2012V32.6619C58.0543 33.9507 57.6165 34.9364 56.7409 35.619C55.8645 36.3024 54.6858 36.6442 53.2048 36.6442H41.0146ZM53.6667 24.7225C53.6659 24.204 53.5483 23.8425 53.314 23.6381C53.0789 23.4337 52.6635 23.3315 52.0678 23.3315H44.6455V26.9373H52.0138C52.1577 26.9373 52.2933 26.9057 52.4205 26.8426C52.5468 26.7803 52.7183 26.6781 52.935 26.5359L53.2061 26.3477C53.4044 26.2065 53.5307 26.0416 53.5851 25.8529C53.6395 25.6643 53.6667 25.405 53.6667 25.0752V24.7225ZM54.4247 31.5552C54.4247 31.3201 54.3976 31.1121 54.3432 30.9314C54.2888 30.7507 54.1532 30.5897 53.9365 30.4484L53.6115 30.2365C53.4492 30.1269 53.3048 30.0405 53.1785 29.9773C53.0522 29.9141 52.9166 29.8825 52.7718 29.8825H44.6455V33.7003H52.8258C53.4224 33.7003 53.8378 33.5981 54.0721 33.3936C54.3072 33.1892 54.4247 32.8278 54.4247 32.3092V31.5552Z" fill="#403F40"/>
<path fill-rule="evenodd" clip-rule="evenodd" d="M74.2331 36.389H70.8523V35.1901C70.518 35.4858 70.1649 35.7854 69.7929 36.0889C69.42 36.3934 68.9792 36.5456 68.4703 36.5456H64.4131C62.8251 36.5456 61.6539 36.2109 60.8993 35.5415C60.1448 34.8729 59.7676 33.8175 59.7676 32.3751C59.7676 30.9504 60.1448 29.9076 60.8993 29.247C61.6539 28.5864 62.8251 28.2561 64.4131 28.2561H70.4693V27.2914C70.4693 26.8922 70.4009 26.6229 70.264 26.4834C70.1263 26.3448 69.832 26.2755 69.381 26.2755H66.0002C64.6675 26.2755 63.57 26.297 62.7075 26.3399C61.8442 26.3834 61.8324 26.4228 61.4797 26.4571V23.6158C62.068 23.5118 62.1877 23.4171 63.0313 23.3302C63.8735 23.2434 64.7653 23.2 65.7067 23.2H69.6468C71.2339 23.2 72.3951 23.5298 73.1303 24.1896C73.8655 24.8502 74.2331 25.8842 74.2331 27.2914V36.389ZM63.53 32.3751C63.53 32.7752 63.6037 33.0748 63.7511 33.274C63.8976 33.474 64.1968 33.574 64.6486 33.574H68.9994C69.1555 33.574 69.3319 33.4828 69.5284 33.3003C69.724 33.1178 70.0377 32.8616 70.4693 32.5318V31.2276H64.6486C64.1968 31.2276 63.8976 31.3188 63.7511 31.5013C63.6037 31.6838 63.53 31.9751 63.53 32.3751Z" fill="#403F40"/>
<path d="M77.0967 36.5456V23.9224H80.5762V25.3858C80.7139 25.2683 80.871 25.1169 81.0473 24.9318C81.2246 24.7467 81.4163 24.566 81.6224 24.3896C81.8286 24.2124 82.0449 24.065 82.2712 23.9474C82.4976 23.8299 82.7288 23.7707 82.9648 23.7698C84.3799 23.7707 85.4121 23.7917 86.0613 23.8329C86.7097 23.8759 87.0931 23.9058 87.2115 23.9224V26.8005H83.1714C83.0134 26.8005 82.8362 26.8848 82.6397 27.0532L80.871 28.5679V36.5456H77.0967Z" fill="#403F40"/>
<path d="M89.5332 22.4511V19.0544H93.3075V22.4511H89.5332ZM89.5332 36.5455V23.871H93.3075V36.5455H89.5332Z" fill="#403F40"/>
<path d="M70.0456 16.8923C69.1639 17.0511 68.3252 17.1305 67.5294 17.1305C66.7328 17.1305 66.0647 16.8046 65.5252 16.1528C64.9856 15.5009 64.7158 14.6341 64.7158 13.5523V0.190918H68.1703V12.9549C68.1703 13.1935 68.2361 13.3926 68.3677 13.5523C68.4993 13.7111 68.6638 13.7905 68.8612 13.7905H70.0456V16.8923Z" fill="#403F40"/>
<path d="M54.2469 0.951416C54.2469 0.951416 46.0626 0.951416 43.3977 0.951416C40.7328 0.951416 39.9722 2.85568 39.9722 6.09043C39.9722 9.32648 41.8751 10.374 44.2545 10.374C46.6338 10.374 48.1564 10.374 49.8699 10.374C51.582 10.374 51.7728 11.2294 51.7728 11.9914C51.7728 12.7534 52.1531 13.8943 48.3472 13.8943C44.54 13.8943 39.9722 13.8943 39.9722 13.8943V16.9409H51.4872C51.4872 16.9409 55.4839 17.2252 55.4839 11.8966C55.4839 8.46976 53.2007 7.51829 51.678 7.51829C50.1554 7.51829 45.9679 7.51829 44.8256 7.51829C43.6833 7.51829 43.4925 6.75763 43.4925 5.80485C43.4925 4.28223 44.0636 4.09272 46.539 4.09272C49.0131 4.09272 54.343 4.09272 54.343 4.09272L54.2469 0.951416Z" fill="#403F40"/>
<path d="M124.102 42.0648H6.66309V40.9238H124.102V42.0648Z" fill="url(#paint1_radial_5144_1245)"/>
<defs>
<linearGradient id="paint0_linear_5144_1245" x1="36.9481" y1="14.2866" x2="28.077" y2="35.2548" gradientUnits="userSpaceOnUse">
<stop stop-color="#26A6DE"/>
<stop offset="1" stop-color="#2E2D7E"/>
</linearGradient>
<radialGradient id="paint1_radial_5144_1245" cx="0" cy="0" r="1" gradientUnits="userSpaceOnUse" gradientTransform="translate(65.3825 41.4943) scale(41.5234 41.5236)">
<stop stop-color="#26A6DE"/>
<stop offset="1" stop-color="#2E2D7E"/>
</radialGradient>
</defs>
</svg>
