<svg width="48" height="48" viewBox="0 0 48 48" fill="none" xmlns="http://www.w3.org/2000/svg">
<path d="M16.5 6V9M9 16.5H6M42 16.5H39M9 24H6M42 24H39M9 31.5H6M42 31.5H39M16.5 39V42M24 6V9M24 39V42M31.5 6V9M31.5 39V42M13.5 39H34.5C35.6935 39 36.8381 38.5259 37.682 37.682C38.5259 36.8381 39 35.6935 39 34.5V13.5C39 12.3065 38.5259 11.1619 37.682 10.318C36.8381 9.47411 35.6935 9 34.5 9H13.5C12.3065 9 11.1619 9.47411 10.318 10.318C9.47411 11.1619 9 12.3065 9 13.5V34.5C9 35.6935 9.47411 36.8381 10.318 37.682C11.1619 38.5259 12.3065 39 13.5 39ZM15 15H33V33H15V15Z" stroke="#2F5E8C" stroke-width="3" stroke-linecap="round" stroke-linejoin="round"/>
</svg>
