<svg width="20" height="20" viewBox="0 0 20 20" fill="none" xmlns="http://www.w3.org/2000/svg">
<path d="M13.75 6.25H6.25V13.75H13.75V6.25Z" fill="#00A1B0"/>
<path fill-rule="evenodd" clip-rule="evenodd" d="M6.875 1.875C7.04076 1.875 7.19973 1.94085 7.31694 2.05806C7.43415 2.17527 7.5 2.33424 7.5 2.5V3.125H9.375V2.5C9.375 2.33424 9.44085 2.17527 9.55806 2.05806C9.67527 1.94085 9.83424 1.875 10 1.875C10.1658 1.875 10.3247 1.94085 10.4419 2.05806C10.5592 2.17527 10.625 2.33424 10.625 2.5V3.125H12.5V2.5C12.5 2.33424 12.5658 2.17527 12.6831 2.05806C12.8003 1.94085 12.9592 1.875 13.125 1.875C13.2908 1.875 13.4497 1.94085 13.5669 2.05806C13.6842 2.17527 13.75 2.33424 13.75 2.5V3.125H14.375C15.038 3.125 15.6739 3.38839 16.1428 3.85723C16.6116 4.32607 16.875 4.96196 16.875 5.625V6.25H17.5C17.6658 6.25 17.8247 6.31585 17.9419 6.43306C18.0592 6.55027 18.125 6.70924 18.125 6.875C18.125 7.04076 18.0592 7.19973 17.9419 7.31694C17.8247 7.43415 17.6658 7.5 17.5 7.5H16.875V9.375H17.5C17.6658 9.375 17.8247 9.44085 17.9419 9.55806C18.0592 9.67527 18.125 9.83424 18.125 10C18.125 10.1658 18.0592 10.3247 17.9419 10.4419C17.8247 10.5592 17.6658 10.625 17.5 10.625H16.875V12.5H17.5C17.6658 12.5 17.8247 12.5658 17.9419 12.6831C18.0592 12.8003 18.125 12.9592 18.125 13.125C18.125 13.2908 18.0592 13.4497 17.9419 13.5669C17.8247 13.6842 17.6658 13.75 17.5 13.75H16.875V14.375C16.875 15.038 16.6116 15.6739 16.1428 16.1428C15.6739 16.6116 15.038 16.875 14.375 16.875H13.75V17.5C13.75 17.6658 13.6842 17.8247 13.5669 17.9419C13.4497 18.0592 13.2908 18.125 13.125 18.125C12.9592 18.125 12.8003 18.0592 12.6831 17.9419C12.5658 17.8247 12.5 17.6658 12.5 17.5V16.875H10.625V17.5C10.625 17.6658 10.5592 17.8247 10.4419 17.9419C10.3247 18.0592 10.1658 18.125 10 18.125C9.83424 18.125 9.67527 18.0592 9.55806 17.9419C9.44085 17.8247 9.375 17.6658 9.375 17.5V16.875H7.5V17.5C7.5 17.6658 7.43415 17.8247 7.31694 17.9419C7.19973 18.0592 7.04076 18.125 6.875 18.125C6.70924 18.125 6.55027 18.0592 6.43306 17.9419C6.31585 17.8247 6.25 17.6658 6.25 17.5V16.875H5.625C4.96196 16.875 4.32607 16.6116 3.85723 16.1428C3.38839 15.6739 3.125 15.038 3.125 14.375V13.75H2.5C2.33424 13.75 2.17527 13.6842 2.05806 13.5669C1.94085 13.4497 1.875 13.2908 1.875 13.125C1.875 12.9592 1.94085 12.8003 2.05806 12.6831C2.17527 12.5658 2.33424 12.5 2.5 12.5H3.125V10.625H2.5C2.33424 10.625 2.17527 10.5592 2.05806 10.4419C1.94085 10.3247 1.875 10.1658 1.875 10C1.875 9.83424 1.94085 9.67527 2.05806 9.55806C2.17527 9.44085 2.33424 9.375 2.5 9.375H3.125V7.5H2.5C2.33424 7.5 2.17527 7.43415 2.05806 7.31694C1.94085 7.19973 1.875 7.04076 1.875 6.875C1.875 6.70924 1.94085 6.55027 2.05806 6.43306C2.17527 6.31585 2.33424 6.25 2.5 6.25H3.125V5.625C3.125 4.96196 3.38839 4.32607 3.85723 3.85723C4.32607 3.38839 4.96196 3.125 5.625 3.125H6.25V2.5C6.25 2.33424 6.31585 2.17527 6.43306 2.05806C6.55027 1.94085 6.70924 1.875 6.875 1.875ZM5 5.625C5 5.45924 5.06585 5.30027 5.18306 5.18306C5.30027 5.06585 5.45924 5 5.625 5H14.375C14.5408 5 14.6997 5.06585 14.8169 5.18306C14.9342 5.30027 15 5.45924 15 5.625V14.375C15 14.5408 14.9342 14.6997 14.8169 14.8169C14.6997 14.9342 14.5408 15 14.375 15H5.625C5.45924 15 5.30027 14.9342 5.18306 14.8169C5.06585 14.6997 5 14.5408 5 14.375V5.625Z" fill="#00A1B0"/>
</svg>
