<svg width="256" height="256" viewBox="0 0 256 256" fill="none" xmlns="http://www.w3.org/2000/svg">
<rect width="256" height="256" fill="white"/>
<path d="M55.1449 102.501H52.2222V96.3916H55.1449V102.501Z" fill="#838484"/>
<path d="M60.726 102.501H57.8032V96.3916H60.726V102.501Z" fill="#838484"/>
<path d="M66.3051 102.501H63.3823V96.3916H66.3051V102.501Z" fill="#838484"/>
<path d="M71.8843 102.501H68.9634V96.3916H71.8843V102.501Z" fill="#838484"/>
<path d="M77.4652 102.501H74.5425V96.3916H77.4652V102.501Z" fill="#838484"/>
<path d="M46.1119 128.007V130.929H40V128.007H46.1119Z" fill="#838484"/>
<path d="M46.1119 122.252V125.175H40V122.252H46.1119Z" fill="#838484"/>
<path d="M46.1119 116.495V119.417H40V116.495H46.1119Z" fill="#838484"/>
<path d="M46.1119 110.738V113.661H40V110.738H46.1119Z" fill="#838484"/>
<path d="M90.218 128.007V130.929H84.1079V128.007H90.218Z" fill="#838484"/>
<path d="M78.6314 137.838H51.4558C49.3101 137.838 47.5723 136.1 47.5723 133.957V107.845C47.5723 105.701 49.3101 103.963 51.4558 103.963H78.6314C80.7753 103.963 82.5131 105.701 82.5131 107.845V133.957C82.5131 136.1 80.7753 137.838 78.6314 137.838Z" fill="url(#paint0_linear_3245_3175)"/>
<path d="M90.218 122.252V125.175H84.1079V122.252H90.218Z" fill="#838484"/>
<path d="M90.218 116.495V119.417H84.1079V116.495H90.218Z" fill="#838484"/>
<path d="M90.218 110.738V113.661H84.1079V110.738H90.218Z" fill="#838484"/>
<path d="M55.1449 145.808H52.2222V139.697H55.1449V145.808Z" fill="#838484"/>
<path d="M60.726 145.808H57.8032V139.697H60.726V145.808Z" fill="#838484"/>
<path d="M66.3051 145.808H63.3823V139.697H66.3051V145.808Z" fill="#838484"/>
<path d="M71.8843 145.808H68.9634V139.697H71.8843V145.808Z" fill="#838484"/>
<path d="M77.4652 145.808H74.5425V139.697H77.4652V145.808Z" fill="#838484"/>
<path fill-rule="evenodd" clip-rule="evenodd" d="M76.3148 133.81H53.7705C52.6241 133.81 51.6909 132.877 51.6909 131.73V110.069C51.6909 108.923 52.6241 107.99 53.7705 107.99H76.3148C77.4612 107.99 78.3944 108.923 78.3944 110.069V131.73C78.3944 132.877 77.4612 133.81 76.3148 133.81ZM53.8164 131.684H76.2689V110.115H53.8164V131.684Z" fill="#FEFEFE"/>
<path fill-rule="evenodd" clip-rule="evenodd" d="M97.9461 157.6C97.8567 157.762 97.7128 157.893 97.5144 157.995C97.316 158.095 97.0619 158.146 96.752 158.147H96.0705V159.6H95.4551V156.018H96.752C97.0411 156.018 97.2854 156.065 97.485 156.16C97.6847 156.255 97.8341 156.383 97.9333 156.544C98.0325 156.705 98.0821 156.886 98.0821 157.086C98.0821 157.268 98.0368 157.439 97.9461 157.6ZM97.2774 157.515C97.3926 157.414 97.4501 157.27 97.4501 157.086C97.4501 156.694 97.2174 156.498 96.752 156.498H96.0705V157.668H96.752C96.986 157.668 97.1611 157.617 97.2774 157.515Z" fill="#231F20"/>
<path fill-rule="evenodd" clip-rule="evenodd" d="M99.201 159.463C98.9744 159.341 98.7962 159.17 98.6664 158.948C98.5366 158.727 98.4717 158.469 98.4717 158.177C98.4717 157.889 98.5384 157.634 98.6719 157.411C98.8054 157.187 98.9873 157.015 99.2175 156.895C99.4478 156.775 99.7056 156.715 99.9909 156.715C100.276 156.715 100.534 156.775 100.764 156.895C100.995 157.015 101.176 157.187 101.31 157.411C101.443 157.634 101.51 157.889 101.51 158.177C101.51 158.466 101.442 158.722 101.304 158.945C101.167 159.169 100.981 159.341 100.746 159.463C100.51 159.585 100.249 159.646 99.9634 159.646C99.6829 159.646 99.4288 159.585 99.201 159.463ZM100.41 159.027C100.548 158.955 100.661 158.847 100.748 158.702C100.835 158.559 100.878 158.384 100.878 158.177C100.878 157.971 100.837 157.797 100.753 157.655C100.67 157.512 100.56 157.405 100.424 157.334C100.287 157.261 100.139 157.225 99.9799 157.225C99.8219 157.225 99.675 157.261 99.539 157.334C99.4043 157.405 99.2971 157.512 99.2175 157.655C99.1379 157.797 99.0981 157.971 99.0981 158.177C99.0981 158.483 99.1802 158.719 99.3443 158.886C99.5084 159.052 99.7148 159.136 99.9634 159.136C100.123 159.136 100.271 159.1 100.41 159.027Z" fill="#231F20"/>
<path d="M106.123 156.76L105.197 159.6H104.549L103.95 157.503L103.349 159.6H102.7L101.769 156.76H102.397L103.018 159.044L103.652 156.76H104.295L104.901 159.033L105.517 156.76H106.123Z" fill="#231F20"/>
<path fill-rule="evenodd" clip-rule="evenodd" d="M109.292 158.399H107.016C107.033 158.626 107.121 158.807 107.28 158.945C107.438 159.083 107.633 159.152 107.864 159.152C108.195 159.152 108.429 159.02 108.566 158.755H109.231C109.142 159.016 108.979 159.23 108.743 159.397C108.506 159.563 108.214 159.646 107.864 159.646C107.579 159.646 107.324 159.585 107.098 159.463C106.873 159.341 106.697 159.17 106.569 158.948C106.441 158.727 106.376 158.469 106.376 158.177C106.376 157.885 106.439 157.629 106.564 157.407C106.688 157.185 106.862 157.015 107.087 156.895C107.313 156.775 107.572 156.715 107.864 156.715C108.145 156.715 108.395 156.773 108.616 156.889C108.835 157.007 109.006 157.171 109.128 157.381C109.251 157.593 109.312 157.836 109.312 158.111C109.312 158.217 109.305 158.313 109.292 158.399ZM108.669 157.925C108.665 157.708 108.585 157.535 108.427 157.405C108.267 157.274 108.071 157.209 107.837 157.209C107.624 157.209 107.442 157.273 107.291 157.402C107.139 157.53 107.049 157.705 107.019 157.925H108.669Z" fill="#231F20"/>
<path d="M110.894 156.836C111.043 156.755 111.221 156.715 111.427 156.715V157.323H111.271C111.029 157.323 110.846 157.381 110.721 157.497C110.598 157.615 110.536 157.817 110.536 158.105V159.6H109.918V156.761H110.536V157.172C110.625 157.029 110.745 156.917 110.894 156.836Z" fill="#231F20"/>
<path d="M112.027 156.277C111.951 156.205 111.913 156.116 111.913 156.009C111.913 155.903 111.951 155.813 112.027 155.741C112.103 155.669 112.197 155.633 112.308 155.633C112.416 155.633 112.508 155.669 112.584 155.741C112.66 155.813 112.698 155.903 112.698 156.009C112.698 156.116 112.66 156.205 112.584 156.277C112.508 156.348 112.416 156.384 112.308 156.384C112.197 156.384 112.103 156.348 112.027 156.277ZM112.611 156.76V159.6H111.994V156.76H112.611Z" fill="#231F20"/>
<path d="M115.554 156.854C115.74 156.946 115.885 157.083 115.99 157.266C116.095 157.448 116.148 157.668 116.148 157.925V159.6H115.536V158.013C115.536 157.759 115.469 157.563 115.336 157.427C115.202 157.293 115.02 157.225 114.79 157.225C114.56 157.225 114.377 157.293 114.241 157.427C114.106 157.563 114.039 157.759 114.039 158.013V159.6H113.421V156.761H114.039V157.086C114.139 156.969 114.268 156.878 114.424 156.812C114.581 156.747 114.748 156.715 114.926 156.715C115.16 156.715 115.369 156.761 115.554 156.854Z" fill="#231F20"/>
<path fill-rule="evenodd" clip-rule="evenodd" d="M118.745 156.847C118.924 156.934 119.064 157.042 119.164 157.172V156.761H119.787V159.646C119.787 159.907 119.729 160.14 119.613 160.344C119.497 160.549 119.331 160.709 119.113 160.826C118.895 160.942 118.635 161 118.332 161C117.928 161 117.592 160.91 117.325 160.73C117.06 160.55 116.908 160.306 116.872 159.997H117.483C117.53 160.144 117.63 160.263 117.783 160.354C117.936 160.445 118.119 160.491 118.332 160.491C118.581 160.491 118.782 160.419 118.935 160.275C119.088 160.13 119.164 159.921 119.164 159.646V159.172C119.06 159.306 118.919 159.419 118.74 159.51C118.561 159.601 118.358 159.646 118.132 159.646C117.872 159.646 117.635 159.583 117.421 159.457C117.207 159.332 117.037 159.157 116.912 158.932C116.788 158.708 116.727 158.453 116.727 158.168C116.727 157.882 116.788 157.63 116.912 157.411C117.037 157.19 117.207 157.019 117.421 156.896C117.635 156.775 117.872 156.715 118.132 156.715C118.362 156.715 118.567 156.759 118.745 156.847ZM119.038 157.668C118.953 157.523 118.842 157.413 118.705 157.337C118.568 157.263 118.42 157.225 118.262 157.225C118.103 157.225 117.955 157.262 117.818 157.335C117.681 157.409 117.57 157.517 117.485 157.659C117.401 157.802 117.359 157.972 117.359 158.168C117.359 158.364 117.401 158.535 117.485 158.682C117.57 158.83 117.682 158.943 117.821 159.02C117.96 159.097 118.107 159.136 118.262 159.136C118.42 159.136 118.568 159.098 118.705 159.022C118.842 158.947 118.953 158.836 119.038 158.689C119.122 158.544 119.164 158.373 119.164 158.179C119.164 157.983 119.122 157.812 119.038 157.668Z" fill="#231F20"/>
<path d="M122.723 157.24V158.811C122.723 158.917 122.748 158.994 122.8 159.04C122.852 159.087 122.942 159.11 123.068 159.11H123.446V159.6H122.96C122.683 159.6 122.47 159.539 122.322 159.415C122.174 159.29 122.1 159.089 122.1 158.811V157.24H121.749V156.761H122.1V156.055H122.723V156.761H123.446V157.24H122.723Z" fill="#231F20"/>
<path d="M126.164 156.854C126.342 156.946 126.483 157.083 126.586 157.266C126.689 157.448 126.74 157.668 126.74 157.925V159.6H126.129V158.013C126.129 157.758 126.062 157.563 125.928 157.427C125.795 157.293 125.613 157.225 125.383 157.225C125.153 157.225 124.969 157.293 124.833 157.427C124.699 157.563 124.631 157.758 124.631 158.013V159.6H124.014V155.787H124.631V157.091C124.736 156.971 124.868 156.878 125.028 156.812C125.189 156.747 125.364 156.715 125.555 156.715C125.783 156.715 125.986 156.761 126.164 156.854Z" fill="#231F20"/>
<path fill-rule="evenodd" clip-rule="evenodd" d="M130.232 158.399H127.956C127.975 158.626 128.063 158.807 128.221 158.945C128.38 159.083 128.575 159.152 128.805 159.152C129.137 159.152 129.371 159.02 129.509 158.755H130.174C130.083 159.016 129.92 159.23 129.685 159.397C129.449 159.563 129.155 159.646 128.805 159.646C128.521 159.646 128.266 159.585 128.041 159.463C127.815 159.341 127.638 159.17 127.51 158.948C127.383 158.727 127.319 158.469 127.319 158.177C127.319 157.885 127.381 157.629 127.504 157.407C127.629 157.185 127.804 157.015 128.03 156.895C128.255 156.775 128.514 156.715 128.805 156.715C129.087 156.715 129.337 156.773 129.556 156.889C129.777 157.007 129.948 157.171 130.071 157.381C130.193 157.593 130.254 157.836 130.254 158.111C130.254 158.217 130.247 158.313 130.232 158.399ZM129.611 157.925C129.608 157.708 129.526 157.535 129.367 157.405C129.209 157.274 129.013 157.209 128.779 157.209C128.566 157.209 128.384 157.273 128.232 157.402C128.08 157.53 127.99 157.705 127.962 157.925H129.611Z" fill="#231F20"/>
<path d="M134.478 156.018V156.498H132.882V157.554H134.125V158.033H132.882V159.6H132.266V156.018H134.478Z" fill="#231F20"/>
<path d="M137.748 156.76V159.6H137.132V159.264C137.034 159.382 136.907 159.474 136.75 159.54C136.594 159.607 136.427 159.641 136.251 159.641C136.017 159.641 135.807 159.594 135.62 159.501C135.436 159.409 135.29 159.272 135.183 159.09C135.077 158.907 135.023 158.687 135.023 158.43V156.76H135.635V158.342C135.635 158.597 135.701 158.792 135.834 158.928C135.967 159.063 136.15 159.13 136.381 159.13C136.611 159.13 136.794 159.063 136.93 158.928C137.065 158.792 137.132 158.597 137.132 158.342V156.76H137.748Z" fill="#231F20"/>
<path d="M139.278 157.24V158.811C139.278 158.917 139.304 158.994 139.357 159.04C139.41 159.087 139.499 159.11 139.625 159.11H140.004V159.6H139.517C139.239 159.6 139.026 159.539 138.877 159.415C138.731 159.29 138.657 159.089 138.657 158.811V157.24H138.306V156.761H138.657V156.055H139.278V156.761H140.004V157.24H139.278Z" fill="#231F20"/>
<path d="M143.268 156.76V159.6H142.653V159.264C142.556 159.382 142.429 159.474 142.273 159.54C142.115 159.607 141.947 159.641 141.771 159.641C141.537 159.641 141.327 159.594 141.141 159.501C140.956 159.409 140.81 159.272 140.704 159.09C140.597 158.907 140.544 158.687 140.544 158.43V156.76H141.156V158.342C141.156 158.597 141.222 158.792 141.354 158.928C141.488 159.063 141.67 159.13 141.902 159.13C142.132 159.13 142.315 159.063 142.451 158.928C142.586 158.792 142.653 158.597 142.653 158.342V156.76H143.268Z" fill="#231F20"/>
<path d="M145.056 156.836C145.205 156.755 145.383 156.715 145.588 156.715V157.323H145.432C145.191 157.323 145.008 157.381 144.883 157.497C144.759 157.615 144.697 157.817 144.695 158.105V159.6H144.08V156.761H144.695V157.172C144.786 157.029 144.906 156.917 145.056 156.836Z" fill="#231F20"/>
<path fill-rule="evenodd" clip-rule="evenodd" d="M148.866 158.399H146.589C146.607 158.626 146.695 158.807 146.854 158.945C147.012 159.083 147.207 159.152 147.438 159.152C147.77 159.152 148.004 159.02 148.14 158.755H148.807C148.716 159.016 148.553 159.23 148.316 159.397C148.08 159.563 147.787 159.646 147.438 159.646C147.153 159.646 146.898 159.585 146.672 159.463C146.447 159.341 146.27 159.17 146.143 158.948C146.014 158.727 145.95 158.469 145.95 158.177C145.95 157.885 146.013 157.629 146.138 157.407C146.261 157.185 146.436 157.015 146.661 156.895C146.886 156.775 147.146 156.715 147.438 156.715C147.719 156.715 147.969 156.773 148.19 156.889C148.409 157.007 148.58 157.171 148.704 157.381C148.826 157.593 148.888 157.836 148.888 158.111C148.888 158.217 148.88 158.313 148.866 158.399ZM148.243 157.925C148.239 157.708 148.158 157.535 148 157.405C147.841 157.274 147.645 157.209 147.411 157.209C147.198 157.209 147.016 157.273 146.865 157.402C146.713 157.53 146.623 157.705 146.595 157.925H148.243Z" fill="#231F20"/>
<path d="M153.326 156.018V156.498H152.327V159.6H151.709V156.498H150.705V156.018H153.326Z" fill="#231F20"/>
<path d="M156.098 156.854C156.276 156.946 156.416 157.083 156.519 157.266C156.622 157.448 156.673 157.668 156.673 157.925V159.6H156.063V158.013C156.063 157.758 155.996 157.563 155.863 157.427C155.729 157.293 155.547 157.225 155.316 157.225C155.085 157.225 154.902 157.293 154.766 157.427C154.632 157.563 154.564 157.758 154.564 158.013V159.6H153.949V155.787H154.564V157.091C154.669 156.971 154.802 156.878 154.963 156.812C155.123 156.747 155.298 156.715 155.488 156.715C155.716 156.715 155.919 156.761 156.098 156.854Z" fill="#231F20"/>
<path d="M158.433 156.836C158.582 156.755 158.76 156.715 158.966 156.715V157.323H158.81C158.567 157.323 158.384 157.381 158.26 157.497C158.135 157.615 158.073 157.817 158.073 158.105V159.6H157.458V156.761H158.073V157.172C158.164 157.029 158.284 156.917 158.433 156.836Z" fill="#231F20"/>
<path fill-rule="evenodd" clip-rule="evenodd" d="M160.062 159.463C159.836 159.341 159.658 159.17 159.528 158.948C159.398 158.727 159.333 158.469 159.333 158.177C159.333 157.889 159.4 157.634 159.533 157.411C159.667 157.187 159.849 157.015 160.079 156.895C160.31 156.775 160.568 156.715 160.852 156.715C161.138 156.715 161.395 156.775 161.626 156.895C161.857 157.015 162.039 157.187 162.171 157.411C162.305 157.634 162.372 157.889 162.372 158.177C162.372 158.466 162.303 158.722 162.166 158.945C162.03 159.169 161.844 159.341 161.607 159.463C161.371 159.585 161.111 159.646 160.827 159.646C160.545 159.646 160.29 159.585 160.062 159.463ZM161.271 159.027C161.411 158.955 161.523 158.847 161.609 158.702C161.696 158.559 161.74 158.384 161.74 158.177C161.74 157.971 161.698 157.797 161.615 157.655C161.533 157.512 161.423 157.405 161.286 157.334C161.149 157.261 161 157.225 160.841 157.225C160.683 157.225 160.536 157.261 160.4 157.334C160.266 157.405 160.158 157.512 160.079 157.655C160 157.797 159.961 157.971 159.961 158.177C159.961 158.483 160.043 158.719 160.206 158.886C160.371 159.052 160.578 159.136 160.827 159.136C160.985 159.136 161.133 159.1 161.271 159.027Z" fill="#231F20"/>
<path d="M165.68 156.76V159.6H165.065V159.264C164.968 159.382 164.841 159.474 164.685 159.54C164.527 159.607 164.36 159.641 164.183 159.641C163.949 159.641 163.739 159.594 163.553 159.501C163.368 159.409 163.222 159.272 163.116 159.09C163.009 158.907 162.956 158.687 162.956 158.43V156.76H163.568V158.342C163.568 158.597 163.634 158.792 163.766 158.928C163.9 159.063 164.082 159.13 164.314 159.13C164.544 159.13 164.727 159.063 164.863 158.928C164.998 158.792 165.065 158.597 165.065 158.342V156.76H165.68Z" fill="#231F20"/>
<path fill-rule="evenodd" clip-rule="evenodd" d="M168.307 156.847C168.485 156.934 168.625 157.042 168.726 157.172V156.761H169.347V159.646C169.347 159.907 169.29 160.14 169.174 160.344C169.059 160.549 168.893 160.709 168.675 160.826C168.457 160.942 168.196 161 167.892 161C167.489 161 167.154 160.91 166.887 160.73C166.62 160.55 166.469 160.306 166.434 159.997H167.043C167.091 160.144 167.192 160.263 167.345 160.354C167.498 160.445 167.68 160.491 167.892 160.491C168.142 160.491 168.344 160.419 168.497 160.275C168.65 160.13 168.726 159.921 168.726 159.646V159.172C168.622 159.306 168.481 159.419 168.302 159.51C168.123 159.601 167.92 159.646 167.694 159.646C167.434 159.646 167.197 159.583 166.981 159.457C166.767 159.332 166.598 159.157 166.474 158.932C166.349 158.708 166.287 158.453 166.287 158.168C166.287 157.882 166.349 157.63 166.474 157.411C166.598 157.19 166.767 157.019 166.981 156.896C167.197 156.775 167.434 156.715 167.694 156.715C167.924 156.715 168.129 156.759 168.307 156.847ZM168.599 157.668C168.514 157.523 168.403 157.413 168.267 157.337C168.13 157.263 167.982 157.225 167.822 157.225C167.664 157.225 167.517 157.262 167.38 157.335C167.243 157.409 167.132 157.517 167.047 157.659C166.963 157.802 166.92 157.972 166.92 158.168C166.92 158.364 166.963 158.535 167.047 158.682C167.132 158.83 167.243 158.943 167.382 159.02C167.521 159.097 167.668 159.136 167.822 159.136C167.982 159.136 168.13 159.098 168.267 159.022C168.403 158.947 168.514 158.836 168.599 158.689C168.684 158.544 168.726 158.373 168.726 158.179C168.726 157.983 168.684 157.812 168.599 157.668Z" fill="#231F20"/>
<path d="M172.309 156.854C172.486 156.946 172.626 157.083 172.729 157.266C172.832 157.448 172.884 157.668 172.884 157.925V159.6H172.274V158.013C172.274 157.758 172.207 157.563 172.073 157.427C171.94 157.293 171.757 157.225 171.526 157.225C171.296 157.225 171.113 157.293 170.977 157.427C170.842 157.563 170.775 157.758 170.775 158.013V159.6H170.159V155.787H170.775V157.091C170.88 156.971 171.013 156.878 171.173 156.812C171.334 156.747 171.509 156.715 171.699 156.715C171.926 156.715 172.13 156.761 172.309 156.854Z" fill="#231F20"/>
<path d="M175.69 156.492V157.543H176.987V158.023H175.69V159.121H177.149V159.6H175.073V156.013H177.149V156.492H175.69Z" fill="#231F20"/>
<path d="M179.183 158.162L180.145 159.6H179.447L178.804 158.636L178.198 159.6H177.555L178.518 158.202L177.555 156.76H178.253L178.896 157.725L179.502 156.76H180.145L179.183 158.162Z" fill="#231F20"/>
<path fill-rule="evenodd" clip-rule="evenodd" d="M181.648 156.849C181.828 156.759 182.032 156.715 182.26 156.715C182.519 156.715 182.756 156.775 182.971 156.896C183.185 157.019 183.353 157.19 183.476 157.411C183.598 157.63 183.66 157.882 183.66 158.168C183.66 158.453 183.598 158.708 183.476 158.932C183.353 159.157 183.185 159.332 182.971 159.457C182.756 159.583 182.519 159.646 182.26 159.646C182.032 159.646 181.83 159.602 181.653 159.514C181.477 159.427 181.333 159.318 181.222 159.187V160.949H180.604V156.761H181.222V157.178C181.326 157.048 181.468 156.938 181.648 156.849ZM182.906 157.659C182.821 157.517 182.709 157.409 182.57 157.335C182.432 157.262 182.283 157.225 182.124 157.225C181.969 157.225 181.822 157.263 181.683 157.337C181.544 157.413 181.433 157.523 181.348 157.668C181.264 157.812 181.222 157.983 181.222 158.179C181.222 158.373 181.264 158.544 181.348 158.689C181.433 158.836 181.544 158.947 181.683 159.022C181.822 159.098 181.969 159.136 182.124 159.136C182.283 159.136 182.432 159.097 182.57 159.02C182.709 158.943 182.821 158.83 182.906 158.682C182.991 158.535 183.033 158.364 183.033 158.168C183.033 157.972 182.991 157.802 182.906 157.659Z" fill="#231F20"/>
<path fill-rule="evenodd" clip-rule="evenodd" d="M186.979 158.399H184.703C184.721 158.626 184.81 158.807 184.969 158.945C185.127 159.083 185.321 159.152 185.552 159.152C185.884 159.152 186.118 159.02 186.255 158.755H186.92C186.83 159.016 186.667 159.23 186.432 159.397C186.195 159.563 185.902 159.646 185.552 159.646C185.267 159.646 185.013 159.585 184.787 159.463C184.562 159.341 184.386 159.17 184.258 158.948C184.13 158.727 184.065 158.469 184.065 158.177C184.065 157.885 184.128 157.629 184.253 157.407C184.377 157.185 184.551 157.015 184.776 156.895C185.002 156.775 185.26 156.715 185.552 156.715C185.833 156.715 186.084 156.773 186.305 156.889C186.524 157.007 186.695 157.171 186.817 157.381C186.94 157.593 187.001 157.836 187.001 158.111C187.001 158.217 186.994 158.313 186.979 158.399ZM186.358 157.925C186.354 157.708 186.274 157.535 186.116 157.405C185.956 157.274 185.76 157.209 185.526 157.209C185.313 157.209 185.13 157.273 184.978 157.402C184.828 157.53 184.738 157.705 184.708 157.925H186.358Z" fill="#231F20"/>
<path d="M188.583 156.836C188.732 156.755 188.91 156.715 189.116 156.715V157.323H188.959C188.718 157.323 188.535 157.381 188.41 157.497C188.285 157.615 188.223 157.817 188.223 158.105V159.6H187.607V156.761H188.223V157.172C188.313 157.029 188.433 156.917 188.583 156.836Z" fill="#231F20"/>
<path d="M190.403 157.24V158.811C190.403 158.917 190.429 158.994 190.48 159.04C190.533 159.087 190.623 159.11 190.749 159.11H191.127V159.6H190.64C190.362 159.6 190.15 159.539 190.003 159.415C189.855 159.29 189.781 159.089 189.781 158.811V157.24H189.43V156.761H189.781V156.055H190.403V156.761H191.127V157.24H190.403Z" fill="#231F20"/>
<path d="M191.728 156.277C191.652 156.205 191.614 156.116 191.614 156.009C191.614 155.903 191.652 155.813 191.728 155.741C191.804 155.669 191.898 155.633 192.009 155.633C192.117 155.633 192.209 155.669 192.285 155.741C192.361 155.813 192.399 155.903 192.399 156.009C192.399 156.116 192.361 156.205 192.285 156.277C192.209 156.348 192.117 156.384 192.009 156.384C191.898 156.384 191.804 156.348 191.728 156.277ZM192.312 156.76V159.6H191.695V156.76H192.312Z" fill="#231F20"/>
<path d="M193.574 159.525C193.388 159.444 193.241 159.334 193.133 159.194C193.025 159.056 192.968 158.901 192.96 158.728H193.598C193.609 158.849 193.67 158.95 193.78 159.031C193.889 159.112 194.027 159.152 194.193 159.152C194.366 159.152 194.5 159.12 194.595 159.057C194.691 158.993 194.739 158.911 194.739 158.811C194.739 158.704 194.685 158.625 194.579 158.574C194.472 158.522 194.304 158.466 194.074 158.405C193.851 158.346 193.669 158.289 193.528 158.234C193.387 158.179 193.265 158.095 193.163 157.982C193.06 157.868 193.008 157.719 193.008 157.534C193.008 157.382 193.055 157.244 193.15 157.119C193.243 156.994 193.377 156.895 193.552 156.823C193.727 156.751 193.928 156.715 194.155 156.715C194.494 156.715 194.767 156.796 194.974 156.959C195.181 157.122 195.292 157.344 195.306 157.626H194.691C194.68 157.5 194.625 157.399 194.527 157.323C194.431 157.247 194.299 157.209 194.132 157.209C193.971 157.209 193.847 157.238 193.76 157.297C193.674 157.356 193.631 157.433 193.631 157.528C193.631 157.604 193.66 157.668 193.717 157.719C193.775 157.771 193.845 157.811 193.929 157.841C194.011 157.869 194.133 157.906 194.296 157.951C194.512 158.006 194.689 158.062 194.829 158.118C194.967 158.174 195.087 158.258 195.187 158.368C195.289 158.478 195.341 158.624 195.345 158.807C195.345 158.969 195.298 159.112 195.203 159.239C195.11 159.366 194.978 159.466 194.807 159.538C194.635 159.61 194.434 159.646 194.204 159.646C193.969 159.646 193.759 159.606 193.574 159.525Z" fill="#231F20"/>
<path fill-rule="evenodd" clip-rule="evenodd" d="M198.718 158.399H196.442C196.46 158.626 196.548 158.807 196.706 158.945C196.865 159.083 197.06 159.152 197.29 159.152C197.622 159.152 197.857 159.02 197.994 158.755H198.659C198.568 159.016 198.405 159.23 198.17 159.397C197.934 159.563 197.641 159.646 197.29 159.646C197.006 159.646 196.752 159.585 196.526 159.463C196.301 159.341 196.124 159.17 195.995 158.948C195.868 158.727 195.804 158.469 195.804 158.177C195.804 157.885 195.867 157.629 195.992 157.407C196.115 157.185 196.29 157.015 196.515 156.895C196.74 156.775 196.999 156.715 197.29 156.715C197.572 156.715 197.823 156.773 198.044 156.889C198.263 157.007 198.434 157.171 198.556 157.381C198.679 157.593 198.74 157.836 198.74 158.111C198.74 158.217 198.732 158.313 198.718 158.399ZM198.097 157.925C198.093 157.708 198.012 157.535 197.853 157.405C197.695 157.274 197.499 157.209 197.265 157.209C197.052 157.209 196.869 157.273 196.717 157.402C196.567 157.53 196.477 157.705 196.447 157.925H198.097Z" fill="#231F20"/>
<path d="M166.885 113.341V117.38H155.881C151.076 117.38 148.673 115.671 148.673 112.252V105.505C148.673 102.086 151.076 100.376 155.881 100.376H166.885V104.417H155.881C154.364 104.417 153.605 104.957 153.455 106.036V111.721C153.605 112.801 154.364 113.341 155.881 113.341H166.885Z" fill="#403F40"/>
<path d="M140.408 98.6438V94H145.679V98.6438H140.408ZM140.408 117.911V100.584H145.677V117.911H140.408Z" fill="#403F40"/>
<path d="M120.746 98.6438V94H126.017V98.6438H120.746ZM120.746 117.911V100.584H126.015V117.911H120.746Z" fill="#403F40"/>
<path fill-rule="evenodd" clip-rule="evenodd" d="M190.835 111.585C190.835 113.668 190.266 115.17 189.127 116.091C187.988 117.012 186.115 117.472 183.509 117.472H177.704C175.097 117.472 173.223 117.012 172.084 116.091C170.945 115.17 170.376 113.668 170.376 111.585V106.52C170.376 104.437 170.945 102.935 172.084 102.014C173.223 101.094 175.097 100.633 177.704 100.633H183.509C186.115 100.633 187.988 101.094 189.127 102.014C190.266 102.935 190.835 104.437 190.835 106.52V111.585ZM185.567 106.519C185.567 105.73 185.409 105.209 185.093 104.957C184.778 104.705 184.126 104.579 183.138 104.579H178.075C177.087 104.579 176.435 104.705 176.119 104.957C175.804 105.209 175.646 105.73 175.646 106.519V111.585C175.646 112.373 175.804 112.894 176.119 113.146C176.435 113.398 177.087 113.525 178.075 113.525H183.138C184.126 113.525 184.778 113.398 185.093 113.146C185.409 112.894 185.567 112.373 185.567 111.585V106.519Z" fill="#403F40"/>
<path d="M209.731 117.274V105.83C209.731 105.325 209.629 104.991 209.423 104.827C209.217 104.661 208.798 104.579 208.166 104.579H202.075C201.827 104.579 201.56 104.672 201.272 104.858C200.984 105.045 200.565 105.358 200.015 105.797V117.274H194.747V100.83H199.481V102.211C199.673 102.08 199.9 101.927 200.16 101.752C200.421 101.575 200.702 101.405 201.004 101.241C201.306 101.077 201.608 100.934 201.909 100.813C202.211 100.693 202.512 100.633 202.815 100.633H208.537C210.76 100.633 212.393 101.055 213.437 101.899C214.479 102.742 215 104.053 215 105.83V117.274H209.731Z" fill="#403F40"/>
<path fill-rule="evenodd" clip-rule="evenodd" d="M97.2539 145.149V122.456H113.249C115.292 122.456 116.925 122.933 118.147 123.887C119.369 124.841 119.981 126.228 119.982 128.047V129.495C119.981 130.197 119.874 130.778 119.661 131.238C119.445 131.699 119.048 132.126 118.468 132.52L117.447 133.178L119.111 134.197C119.893 134.68 120.409 135.179 120.662 135.695C120.914 136.209 121.04 136.828 121.04 137.552V139.591C121.04 141.39 120.429 142.765 119.207 143.718C117.983 144.672 116.338 145.149 114.271 145.149H97.2539ZM114.915 128.508C114.914 127.785 114.75 127.28 114.423 126.995C114.095 126.71 113.515 126.567 112.683 126.567H102.322V131.6H112.608C112.809 131.6 112.998 131.556 113.176 131.468C113.352 131.381 113.591 131.238 113.894 131.04L114.272 130.777C114.549 130.58 114.726 130.35 114.801 130.086C114.877 129.823 114.915 129.461 114.915 129.001V128.508ZM115.974 138.046C115.974 137.718 115.936 137.427 115.86 137.175C115.784 136.923 115.594 136.698 115.292 136.501L114.838 136.205C114.612 136.052 114.41 135.931 114.234 135.843C114.057 135.755 113.868 135.711 113.666 135.711H102.322V141.04H113.741C114.574 141.04 115.154 140.897 115.481 140.612C115.809 140.327 115.974 139.822 115.974 139.098V138.046Z" fill="#403F40"/>
<path fill-rule="evenodd" clip-rule="evenodd" d="M143.625 144.793H138.905V143.119C138.439 143.532 137.946 143.95 137.426 144.374C136.906 144.799 136.29 145.011 135.58 145.011H129.916C127.7 145.011 126.065 144.544 125.012 143.61C123.958 142.677 123.432 141.203 123.432 139.19C123.432 137.201 123.958 135.746 125.012 134.824C126.065 133.902 127.7 133.441 129.916 133.441H138.371V132.094C138.371 131.537 138.275 131.161 138.084 130.966C137.892 130.773 137.481 130.676 136.851 130.676H132.132C130.272 130.676 128.74 130.706 127.536 130.766C126.331 130.827 126.314 130.882 125.822 130.929V126.964C126.643 126.818 126.81 126.686 127.988 126.565C129.163 126.444 130.408 126.383 131.722 126.383H137.222C139.438 126.383 141.059 126.844 142.085 127.764C143.111 128.687 143.625 130.13 143.625 132.094V144.793ZM128.684 139.19C128.684 139.749 128.787 140.167 128.992 140.445C129.197 140.724 129.615 140.864 130.245 140.864H136.319C136.537 140.864 136.783 140.736 137.057 140.481C137.33 140.227 137.768 139.869 138.371 139.409V137.588H130.245C129.615 137.588 129.197 137.716 128.992 137.97C128.787 138.225 128.684 138.632 128.684 139.19Z" fill="#403F40"/>
<path d="M147.622 145.011V127.392H152.479V129.434C152.672 129.27 152.891 129.059 153.137 128.8C153.384 128.542 153.652 128.29 153.94 128.044C154.228 127.796 154.529 127.591 154.845 127.426C155.161 127.262 155.484 127.18 155.814 127.178C157.789 127.18 159.23 127.209 160.136 127.267C161.041 127.327 161.576 127.368 161.742 127.392V131.409H156.102C155.881 131.409 155.634 131.526 155.36 131.762L152.891 133.876V145.011H147.622Z" fill="#403F40"/>
<path d="M164.982 125.338V120.597H170.251V125.338H164.982ZM164.982 145.012V127.32H170.251V145.012H164.982Z" fill="#403F40"/>
<path d="M137.779 117.579C136.549 117.8 135.378 117.911 134.267 117.911C133.155 117.911 132.222 117.456 131.469 116.546C130.716 115.637 130.339 114.427 130.339 112.917V94.2664H135.162V112.083C135.162 112.416 135.253 112.694 135.437 112.917C135.621 113.138 135.851 113.249 136.126 113.249H137.779V117.579Z" fill="#403F40"/>
<path d="M115.725 95.3281C115.725 95.3281 104.301 95.3281 100.581 95.3281C96.8606 95.3281 95.7988 97.9862 95.7988 102.501C95.7988 107.018 98.4552 108.481 101.777 108.481C105.098 108.481 107.223 108.481 109.615 108.481C112.005 108.481 112.272 109.675 112.272 110.738C112.272 111.802 112.803 113.394 107.49 113.394C102.175 113.394 95.7988 113.394 95.7988 113.394V117.647H111.873C111.873 117.647 117.452 118.044 117.452 110.606C117.452 105.822 114.265 104.494 112.139 104.494C110.014 104.494 104.168 104.494 102.574 104.494C100.979 104.494 100.713 103.433 100.713 102.103C100.713 99.9774 101.51 99.7129 104.966 99.7129C108.419 99.7129 115.86 99.7129 115.86 99.7129L115.725 95.3281Z" fill="#403F40"/>
<path d="M213.238 152.715H49.3013V151.123H213.238V152.715Z" fill="url(#paint1_radial_3245_3175)"/>
<defs>
<linearGradient id="paint0_linear_3245_3175" x1="91.5768" y1="113.942" x2="79.1948" y2="143.211" gradientUnits="userSpaceOnUse">
<stop stop-color="#26A6DE"/>
<stop offset="1" stop-color="#2E2D7E"/>
</linearGradient>
<radialGradient id="paint1_radial_3245_3175" cx="0" cy="0" r="1" gradientUnits="userSpaceOnUse" gradientTransform="translate(131.27 151.919) scale(57.964 57.96)">
<stop stop-color="#26A6DE"/>
<stop offset="1" stop-color="#2E2D7E"/>
</radialGradient>
</defs>
</svg>
